<svg xmlns="http://www.w3.org/2000/svg" viewBox="0 0 15 21.23"><defs><style>.cls-1{fill:#007b24;}</style></defs><title>Ресурс 3</title><g id="Слой_2" data-name="Слой 2"><g id="basis"><polygon class="cls-1" points="7.5 0 7.5 0 7.5 0 7.5 0"/><path class="cls-1" d="M3.5,6a4,4,0,0,1,8,0V7.5h2V6a6,6,0,0,0-12,0V7.5h2Z"/><path class="cls-1" d="M14.44,8.73H.56A.56.56,0,0,0,0,9.29v6.33a5.61,5.61,0,0,0,5.61,5.61H9.39A5.61,5.61,0,0,0,15,15.62V9.29A.56.56,0,0,0,14.44,8.73ZM9,18.73H6l.85-4.5a1.88,1.88,0,1,1,1.3,0Z"/></g></g></svg>