<svg xmlns="http://www.w3.org/2000/svg" viewBox="0 0 100 104.65"><defs><style>.cls-1{fill:#606060}.cls-2{fill:#ff2c2c}.cls-3{fill:#fff}</style></defs><g id="Слой_2" data-name="Слой 2"><g id="_1" data-name="1"><path class="cls-1" d="M0 91.75h3.05L4 97.64c.18 1.33.37 2.66.54 4h.08l.78-4 1.42-5.89h2.49l1.41 5.89c.27 1.29.53 2.65.79 4h.08c.18-1.34.36-2.69.53-4l.88-5.89h2.84l-2.34 12.61H9.8l-1.29-5.72c-.21-1-.38-2-.53-2.93H7.9c-.16.94-.32 2-.53 2.93l-1.25 5.72H2.45zM21.84 91.75h8.25v2.4h-5.28v2.55h4.49v2.4h-4.49v2.9h5.48v2.4h-8.45zM36.62 91.75h4.51c2.73 0 4.85.72 4.85 3.14a2.93 2.93 0 0 1-1.73 2.74v.07a2.92 2.92 0 0 1 2.38 3c0 2.58-2.26 3.73-5.13 3.73h-4.88zM41 96.82c1.44 0 2.08-.58 2.08-1.51S42.4 94 41 94h-1.4v2.86zm.27 5.39c1.62 0 2.46-.56 2.46-1.71s-.82-1.56-2.46-1.56H39.6v3.27zM54.26 91.72H56l1.39 6.92.78 4.09h.08c.29-1.36.61-2.74.93-4.09L61 91.72h1.53l1.84 6.92c.32 1.34.64 2.72 1 4.09h.08c.25-1.37.49-2.74.75-4.09l1.39-6.92h1.61l-2.75 12.7h-2l-2-7.63c-.23-1-.44-1.91-.64-2.89h-.11c-.21 1-.44 1.9-.66 2.89l-2 7.63h-2zM73.36 98c0-4.07 2.34-6.54 5.67-6.54S84.7 94 84.7 98s-2.34 6.62-5.67 6.62-5.67-2.53-5.67-6.62zM83 98c0-3.17-1.55-5.12-3.92-5.12s-3.93 2-3.93 5.12 1.56 5.2 3.93 5.2S83 101.19 83 98zM90.2 91.72h1.69v6.37l5.51-6.37h1.91l-4.15 4.84 4.79 7.86h-1.83l-4-6.6-2.27 2.59v4H90.2z"/><path class="cls-2" d="M46.41 77.45a9.45 9.45 0 0 1-4.33-1.06l-14.62-7.6a9.34 9.34 0 0 1-4.59-5.41L11.17 30v-.11-.14a9.38 9.38 0 0 1 4.03-10.87L44.44 1.34a9.34 9.34 0 0 1 9.64 0l29.25 17.54a9.43 9.43 0 0 1 4.55 8 9.3 9.3 0 0 1-.5 3v.1L75.77 63.44a9.36 9.36 0 0 1-4.57 5.35l-14.62 7.6a9.45 9.45 0 0 1-4.33 1.06z"/><path class="cls-2" d="M87.14 26a6.24 6.24 0 0 0-3-5.35l-31.64-19a6.22 6.22 0 0 0-6.41 0l-31.64 19a6.24 6.24 0 0 0-3 5.35 6.1 6.1 0 0 0 .32 2v.1l12.64 36.05a6.22 6.22 0 0 0 3.07 3.64L43.29 76a6.25 6.25 0 0 0 2.88.7h6.33a6.22 6.22 0 0 0 2.88-.7l15.82-8.21a6.27 6.27 0 0 0 3-3.59L86.78 28a6.39 6.39 0 0 0 .36-2z"/><path d="M75 22.44L49.26 7 23.49 22.44 17.63 26l31.63 19L75 29.47 80.9 26zM49.26 33.87L36.61 26l12.65-8 12.66 8z"/><path d="M58.76 54.42l-3.17-9.49-6.33 3.17-6.32-3.17-3.17 9.49-3.16-12.65-15.82-9.49 9.49 29.74 15.82 8.22 3.16-15.82 3.17 15.82 15.82-8.22 9.79-29.74-16.12 9.49-3.16 12.65z"/><path class="cls-3" d="M80.9 26L75 22.44 49.26 7 23.49 22.44 17.63 26l31.63 19L75 29.47 80.9 26zm-44.29 0l12.65-8 12.66 8-12.66 7.87z"/><path class="cls-3" d="M68.25 62.02l-15.82 8.22-3.17-15.82-3.16 15.82-15.82-8.22-9.49-29.74 15.82 9.49 3.16 12.65 3.17-9.49 6.32 3.17 6.33-3.17 3.17 9.49 3.16-12.65 16.12-9.49-9.79 29.74z"/></g></g></svg>