<svg xmlns="http://www.w3.org/2000/svg" viewBox="0 0 19 19"><defs><style>.cls-1{fill:#d7d7d7;}</style></defs><title>Ресурс 4</title><g id="Слой_2" data-name="Слой 2"><g id="_1" data-name="1"><path class="cls-1" d="M19,16.53a1.69,1.69,0,0,0-.6-1.75,10.14,10.14,0,0,0-3.54-2.36,1.76,1.76,0,0,0-1.76.59c-.54.48-1.18,1.18-1.18,1.18A17.43,17.43,0,0,1,7.7,11.3,16.25,16.25,0,0,1,4.81,7.12S5.5,6.49,6,6a1.76,1.76,0,0,0,.58-1.77A10.07,10.07,0,0,0,4.22.65,1.7,1.7,0,0,0,2.47,0,3.09,3.09,0,0,0,.69,1.83,6.63,6.63,0,0,0,.1,3.59,6.91,6.91,0,0,0,.1,6,8,8,0,0,0,1,8.54a26.38,26.38,0,0,0,2.59,3.29l.59.59,2.35,2.36.59.58A25.56,25.56,0,0,0,10.45,18a8.11,8.11,0,0,0,2.6.94,7.11,7.11,0,0,0,2.35,0,7.07,7.07,0,0,0,1.77-.59A3.1,3.1,0,0,0,19,16.53Z"/></g></g></svg>