<svg xmlns="http://www.w3.org/2000/svg" viewBox="0 0 67.22 31.82"><defs><style>.cls-1{fill:#ff2c2c;}.cls-2{fill:#8d0000;}.cls-3{fill:#fff;}</style></defs><title>Ресурс 16_1x</title><g id="Слой_2" data-name="Слой 2"><g id="top"><path class="cls-1" d="M44.72,26.19l-41.15-6a3.88,3.88,0,0,1-3.28-4.4L2.07,3.57A3.9,3.9,0,0,1,5.9.25a3.43,3.43,0,0,1,.56,0l57.19,8.3A3.88,3.88,0,0,1,66.93,13L65.15,25.24a3.9,3.9,0,0,1-3.83,3.32,3.64,3.64,0,0,1-.57,0l-8.23-1.2-9.7,4.05Z"/><path class="cls-2" d="M5.9.5h0a3.15,3.15,0,0,1,.53,0l57.18,8.3A3.62,3.62,0,0,1,66.68,13L64.9,25.21a3.64,3.64,0,0,1-3.58,3.1,3.08,3.08,0,0,1-.53,0l-8.17-1.18-.14,0-.12.05-9.1,3.8,1.59-4.35.21-.58-.61-.09L3.61,20A3.63,3.63,0,0,1,.54,15.86L2.32,3.61A3.64,3.64,0,0,1,5.9.5m0-.5A4.14,4.14,0,0,0,1.82,3.53L0,15.79a4.14,4.14,0,0,0,3.49,4.68L44.38,26.4l-2,5.42,10.16-4.24,8.17,1.19a4,4,0,0,0,.6,0,4.14,4.14,0,0,0,4.08-3.53L67.17,13a4.11,4.11,0,0,0-3.49-4.67L6.5,0a4,4,0,0,0-.6,0Z"/><path class="cls-3" d="M9,14.15,9.7,9l2.57.37a5.69,5.69,0,0,1,.84.18,2.45,2.45,0,0,1,.69.32,1.31,1.31,0,0,1,.43.48,1.11,1.11,0,0,1,.09.69.88.88,0,0,1-.15.41,1,1,0,0,1-.3.29,1.76,1.76,0,0,1-.4.16,1.84,1.84,0,0,1-.47.06v0a2.46,2.46,0,0,1,.5.18,1.24,1.24,0,0,1,.38.29,1,1,0,0,1,.23.38,1.41,1.41,0,0,1,0,.51,1.32,1.32,0,0,1-.74,1.07,3,3,0,0,1-1.68.15Zm1.8-2.9,1,.14a3.44,3.44,0,0,0,.51,0,.88.88,0,0,0,.35-.06.43.43,0,0,0,.2-.15.88.88,0,0,0,.09-.26.5.5,0,0,0-.17-.48,1.74,1.74,0,0,0-.75-.25l-1.06-.15Zm-.32,2.17,1.09.16a2.74,2.74,0,0,0,.54,0,1,1,0,0,0,.38-.06.44.44,0,0,0,.22-.18.67.67,0,0,0,.11-.3.72.72,0,0,0,0-.33.47.47,0,0,0-.18-.24,1.21,1.21,0,0,0-.36-.18,4.43,4.43,0,0,0-.55-.11l-1-.15Z"/><path class="cls-3" d="M17.22,15.34,18,10.16l4.55.65L21.76,16l-1.34-.19L21,11.54l-1.86-.27-.61,4.26Z"/><path class="cls-3" d="M23,13.51a3.71,3.71,0,0,1,.31-1,2.49,2.49,0,0,1,.61-.78,2.11,2.11,0,0,1,.9-.44,3.06,3.06,0,0,1,1.18,0,3.1,3.1,0,0,1,1.17.38,2.15,2.15,0,0,1,.73.67,2.32,2.32,0,0,1,.34.91,4.07,4.07,0,0,1,0,1.1,3.76,3.76,0,0,1-.32,1.06,2.52,2.52,0,0,1-.62.78,2.34,2.34,0,0,1-.91.44,3.28,3.28,0,0,1-1.18,0,2.87,2.87,0,0,1-1.08-.36,2.26,2.26,0,0,1-.74-.66,2.39,2.39,0,0,1-.37-.93A3.49,3.49,0,0,1,23,13.51Zm1.41.21a3.83,3.83,0,0,0,0,.81,1.64,1.64,0,0,0,.16.59,1,1,0,0,0,.32.37,1.16,1.16,0,0,0,.46.17,1.2,1.2,0,0,0,.54,0,.91.91,0,0,0,.44-.26,1.54,1.54,0,0,0,.32-.52,3.49,3.49,0,0,0,.2-.79,2.41,2.41,0,0,0-.11-1.38,1,1,0,0,0-.82-.55,1.07,1.07,0,0,0-1,.3A2.29,2.29,0,0,0,24.38,13.72Z"/><path class="cls-3" d="M28.16,16l.6.09a3.3,3.3,0,0,0,.45-.76l.28-.57.34-.9c.22-.6.44-1.22.67-1.87l3.6.52-.61,4.26.76.11-.41,2.86-1.24-.18.28-1.94-3.62-.52L29,19l-1.23-.17Zm2.05.3,1.93.28.49-3.34L31.42,13c-.13.42-.25.81-.38,1.15l-.18.52s-.11.22-.31.68A4.18,4.18,0,0,0,30.21,16.27Z"/><path class="cls-3" d="M34.65,16.35a1.71,1.71,0,0,1,.28-.75,1.28,1.28,0,0,1,.51-.44,1.68,1.68,0,0,1,.69-.19,3.16,3.16,0,0,1,.81,0l1.12.14,0-.25a1.81,1.81,0,0,0,0-.46.71.71,0,0,0-.1-.32.57.57,0,0,0-.21-.2.8.8,0,0,0-.32-.09,1.62,1.62,0,0,0-.3,0,.58.58,0,0,0-.25.09.47.47,0,0,0-.18.19,1.13,1.13,0,0,0-.14.33l-1.4-.27a2.43,2.43,0,0,1,.31-.6A1.71,1.71,0,0,1,36,13.1a1.91,1.91,0,0,1,.71-.22,3.38,3.38,0,0,1,1,0,2.86,2.86,0,0,1,.84.25,1.81,1.81,0,0,1,.59.45,1.49,1.49,0,0,1,.32.64,2.08,2.08,0,0,1,0,.83l-.27,1.87,0,.33a.9.9,0,0,0,0,.25.34.34,0,0,0,.11.17.4.4,0,0,0,.21.08,1.51,1.51,0,0,0,.3,0l-.1.73-.23,0h-.4l-.25,0a1,1,0,0,1-.72-.36,1.18,1.18,0,0,1-.18-.77h0a2.12,2.12,0,0,1-.79.65,1.85,1.85,0,0,1-1.06.12,1.77,1.77,0,0,1-.65-.2,1.3,1.3,0,0,1-.46-.37,1.35,1.35,0,0,1-.25-.54A1.9,1.9,0,0,1,34.65,16.35Zm1.43.11a.76.76,0,0,0,.09.58.57.57,0,0,0,.43.24,1,1,0,0,0,.48,0,1.1,1.1,0,0,0,.4-.24,1.39,1.39,0,0,0,.28-.39,1.36,1.36,0,0,0,.15-.47l0-.27-.69-.09-.41,0a1,1,0,0,0-.35.06.71.71,0,0,0-.27.21A1,1,0,0,0,36.08,16.46Z"/><path class="cls-3" d="M40.86,13.45l1.3.19a.42.42,0,0,1,0,.13,2,2,0,0,1,0,.22,2.11,2.11,0,0,1,0,.25l0,.24h0a1.59,1.59,0,0,1,.77-.63,2.16,2.16,0,0,1,1-.07,1.76,1.76,0,0,1,.83.32,1.69,1.69,0,0,1,.51.64,2.48,2.48,0,0,1,.23.89,5.08,5.08,0,0,1,0,1.09,4.78,4.78,0,0,1-.28,1.07,2.39,2.39,0,0,1-.48.81,1.79,1.79,0,0,1-.71.48,1.86,1.86,0,0,1-.92.07A2.46,2.46,0,0,1,42.6,19a2,2,0,0,1-.41-.22,1.37,1.37,0,0,1-.34-.34,1.6,1.6,0,0,1-.24-.47h0a.45.45,0,0,1,0,.12c0,.07,0,.14,0,.23a1.39,1.39,0,0,1,0,.27l0,.26-.29,2-1.34-.19.86-6c0-.27.07-.5.09-.71S40.85,13.57,40.86,13.45Zm1,2.79a3.29,3.29,0,0,0,0,.87,1.67,1.67,0,0,0,.17.57,1,1,0,0,0,.32.34,1.09,1.09,0,0,0,.38.14,1,1,0,0,0,.48,0,.89.89,0,0,0,.38-.27,1.75,1.75,0,0,0,.29-.53,4.49,4.49,0,0,0,.19-.8A2.61,2.61,0,0,0,44,15.16a.93.93,0,0,0-.74-.55,1.15,1.15,0,0,0-.41,0,1,1,0,0,0-.4.24,1.73,1.73,0,0,0-.33.51A3.16,3.16,0,0,0,41.85,16.24Z"/><path class="cls-3" d="M46,16.83a3.39,3.39,0,0,1,.31-1,2.35,2.35,0,0,1,.61-.78,2.23,2.23,0,0,1,.9-.44,2.88,2.88,0,0,1,1.18,0,3.1,3.1,0,0,1,1.17.37,2,2,0,0,1,.72.67,2.18,2.18,0,0,1,.34.91,3.7,3.7,0,0,1,0,1.1,3.13,3.13,0,0,1-.32,1.06,2.09,2.09,0,0,1-.62.78,2.23,2.23,0,0,1-.9.44,3.07,3.07,0,0,1-1.18,0,3.18,3.18,0,0,1-1.09-.35,2.25,2.25,0,0,1-.73-.67A2.41,2.41,0,0,1,46,18,3.23,3.23,0,0,1,46,16.83Zm1.41.2a2.84,2.84,0,0,0,0,.81,1.42,1.42,0,0,0,.16.59.89.89,0,0,0,.32.37,1,1,0,0,0,.46.17,1.2,1.2,0,0,0,.54,0,.91.91,0,0,0,.44-.26,1.71,1.71,0,0,0,.32-.52,3.42,3.42,0,0,0,.19-.78A2.36,2.36,0,0,0,49.71,16a1,1,0,0,0-.81-.54,1.07,1.07,0,0,0-1,.29A2.29,2.29,0,0,0,47.42,17Z"/><path class="cls-3" d="M51.69,20.3l.74-5.18,1.35.19-.32,2.22h.2a.32.32,0,0,0,.2-.09,1.27,1.27,0,0,0,.27-.26q.15-.18.39-.51l.78-1.14,1.31.19L55.37,17.4a1.92,1.92,0,0,1-.35.38,1.87,1.87,0,0,1-.23.17l1.13,2.95-1.38-.19-.8-2.36a.54.54,0,0,1-.19,0h-.21L53,20.49Z"/><path class="cls-3" d="M57.51,14.25l1.41.2-.83,4.68L57,19Zm-1,6.74.19-1.29,1.37.2-.18,1.29Z"/></g></g></svg>